<?xml version="1.0" encoding="UTF-8"?>
<svg width="700pt" height="700pt" version="1.1" viewBox="0 0 700 550" xmlns="http://www.w3.org/2000/svg" xmlns:xlink="http://www.w3.org/1999/xlink">
 <defs>
  <symbol id="p" overflow="visible">
   <path d="m31.266-1.875c-1.6172 0.84375-3.2969 1.4766-5.0469 1.8906-1.7422 0.42578-3.5586 0.64062-5.4531 0.64062-5.668 0-10.156-1.582-13.469-4.75-3.3125-3.1641-4.9688-7.4609-4.9688-12.891 0-5.4375 1.6562-9.7383 4.9688-12.906 3.3125-3.1641 7.8008-4.75 13.469-4.75 1.8945 0 3.7109 0.21484 5.4531 0.64062 1.75 0.42969 3.4297 1.0586 5.0469 1.8906v7.0469c-1.625-1.1133-3.2305-1.9258-4.8125-2.4375-1.5742-0.51953-3.2344-0.78125-4.9844-0.78125-3.1367 0-5.6016 1.0078-7.3906 3.0156-1.793 2-2.6875 4.7617-2.6875 8.2812 0 3.5117 0.89453 6.2734 2.6875 8.2812 1.7891 2 4.2539 3 7.3906 3 1.75 0 3.4102-0.25391 4.9844-0.76562 1.582-0.51953 3.1875-1.332 4.8125-2.4375z"/>
  </symbol>
  <symbol id="i" overflow="visible">
   <path d="m22.875-18.578c-0.71094-0.33203-1.418-0.57812-2.125-0.73438-0.71094-0.15625-1.418-0.23438-2.125-0.23438-2.1055 0-3.7266 0.67188-4.8594 2.0156-1.125 1.3438-1.6875 3.2656-1.6875 5.7656v11.766h-8.1562v-25.531h8.1562v4.2031c1.0508-1.6758 2.2539-2.8945 3.6094-3.6562 1.3633-0.76953 2.9922-1.1562 4.8906-1.1562 0.26953 0 0.56641 0.011719 0.89062 0.03125 0.32031 0.023437 0.78516 0.074219 1.3906 0.15625z"/>
  </symbol>
  <symbol id="b" overflow="visible">
   <path d="m29.391-12.828v2.3281h-19.062c0.19531 1.9062 0.88281 3.3398 2.0625 4.2969 1.1875 0.96094 2.8438 1.4375 4.9688 1.4375 1.7188 0 3.4766-0.25391 5.2812-0.76562 1.8008-0.50781 3.6484-1.2812 5.5469-2.3125v6.2969c-1.9297 0.73047-3.8594 1.2773-5.7969 1.6406-1.9297 0.375-3.8555 0.5625-5.7812 0.5625-4.6172 0-8.2031-1.1719-10.766-3.5156s-3.8438-5.6328-3.8438-9.875c0-4.1641 1.2539-7.4414 3.7656-9.8281 2.5195-2.3828 5.9844-3.5781 10.391-3.5781 4.0078 0 7.2188 1.2109 9.625 3.625 2.4062 2.418 3.6094 5.6484 3.6094 9.6875zm-8.375-2.7188c0-1.5391-0.45312-2.7852-1.3594-3.7344-0.90625-0.95703-2.0898-1.4375-3.5469-1.4375-1.5859 0-2.8711 0.44922-3.8594 1.3438-0.98047 0.88672-1.5898 2.1641-1.8281 3.8281z"/>
  </symbol>
  <symbol id="a" overflow="visible">
   <path d="m15.359-11.484c-1.6992 0-2.9805 0.29297-3.8438 0.875-0.85547 0.57422-1.2812 1.4219-1.2812 2.5469 0 1.0312 0.34375 1.8398 1.0312 2.4219 0.69531 0.58594 1.6602 0.875 2.8906 0.875 1.5312 0 2.8164-0.54688 3.8594-1.6406 1.0508-1.1016 1.5781-2.4844 1.5781-4.1406v-0.9375zm12.469-3.0781v14.562h-8.2344v-3.7812c-1.0938 1.5547-2.3242 2.6836-3.6875 3.3906-1.3672 0.69531-3.0273 1.0469-4.9844 1.0469-2.6484 0-4.7969-0.76953-6.4531-2.3125-1.6484-1.5391-2.4688-3.5391-2.4688-6 0-2.9883 1.0312-5.1797 3.0938-6.5781 2.0625-1.4062 5.2969-2.1094 9.7031-2.1094h4.7969v-0.64062c0-1.2891-0.51172-2.2344-1.5312-2.8281-1.0117-0.60156-2.5938-0.90625-4.75-0.90625-1.75 0-3.3828 0.17969-4.8906 0.53125-1.5 0.34375-2.8984 0.86719-4.1875 1.5625v-6.2188c1.75-0.42578 3.5039-0.75 5.2656-0.96875 1.7578-0.21875 3.5234-0.32812 5.2969-0.32812 4.5938 0 7.9102 0.91406 9.9531 2.7344 2.0508 1.8125 3.0781 4.7617 3.0781 8.8438z"/>
  </symbol>
  <symbol id="h" overflow="visible">
   <path d="m12.828-32.766v7.2344h8.4062v5.8438h-8.4062v10.828c0 1.1797 0.23438 1.9805 0.70312 2.4062 0.47656 0.41797 1.4141 0.625 2.8125 0.625h4.1875v5.8281h-7c-3.2188 0-5.5-0.67188-6.8438-2.0156s-2.0156-3.625-2.0156-6.8438v-10.828h-4.0625v-5.8438h4.0625v-7.2344z"/>
  </symbol>
  <symbol id="g" overflow="visible">
   <path d="m21.281-21.781v-13.672h8.2031v35.453h-8.2031v-3.6875c-1.125 1.5-2.3672 2.6016-3.7188 3.2969-1.3438 0.69531-2.9062 1.0469-4.6875 1.0469-3.1484 0-5.7305-1.25-7.75-3.75-2.0234-2.5-3.0312-5.7109-3.0312-9.6406 0-3.9375 1.0078-7.1562 3.0312-9.6562 2.0195-2.5 4.6016-3.75 7.75-3.75 1.7578 0 3.3164 0.35547 4.6719 1.0625 1.3633 0.71094 2.6094 1.8086 3.7344 3.2969zm-5.375 16.516c1.75 0 3.082-0.63281 4-1.9062 0.91406-1.2812 1.375-3.1328 1.375-5.5625 0-2.4375-0.46094-4.2891-1.375-5.5625-0.91797-1.2812-2.25-1.9219-4-1.9219-1.7305 0-3.0586 0.64062-3.9844 1.9219-0.91797 1.2734-1.375 3.125-1.375 5.5625 0 2.4297 0.45703 4.2812 1.375 5.5625 0.92578 1.2734 2.2539 1.9062 3.9844 1.9062z"/>
  </symbol>
  <symbol id="f" overflow="visible">
   <path d="m17.5-5.2656c1.75 0 3.082-0.63281 4-1.9062 0.91406-1.2812 1.375-3.1328 1.375-5.5625 0-2.4375-0.46094-4.2891-1.375-5.5625-0.91797-1.2812-2.25-1.9219-4-1.9219s-3.0938 0.64844-4.0312 1.9375c-0.92969 1.2812-1.3906 3.1328-1.3906 5.5469 0 2.418 0.46094 4.2656 1.3906 5.5469 0.9375 1.2812 2.2812 1.9219 4.0312 1.9219zm-5.4219-16.516c1.125-1.4883 2.3672-2.5859 3.7344-3.2969 1.3633-0.70703 2.9375-1.0625 4.7188-1.0625 3.1445 0 5.7266 1.25 7.75 3.75 2.0195 2.5 3.0312 5.7188 3.0312 9.6562 0 3.9297-1.0117 7.1406-3.0312 9.6406-2.0234 2.5-4.6055 3.75-7.75 3.75-1.7812 0-3.3555-0.35156-4.7188-1.0469-1.3672-0.70703-2.6094-1.8047-3.7344-3.2969v3.6875h-8.1562v-35.453h8.1562z"/>
  </symbol>
  <symbol id="e" overflow="visible">
   <path d="m0.5625-25.531h8.1719l6.8594 17.328 5.8281-17.328h8.1562l-10.734 27.953c-1.0742 2.832-2.3281 4.8164-3.7656 5.9531-1.4375 1.1328-3.3359 1.7031-5.6875 1.7031h-4.7188v-5.3594h2.5469c1.3828 0 2.3906-0.22656 3.0156-0.67188 0.63281-0.4375 1.1289-1.2266 1.4844-2.3594l0.21875-0.70312z"/>
  </symbol>
  <symbol id="d" overflow="visible">
   <path d="m27.969-32.953v7.2031c-1.875-0.83203-3.7031-1.4609-5.4844-1.8906-1.7734-0.42578-3.4492-0.64062-5.0312-0.64062-2.0938 0-3.6484 0.29297-4.6562 0.875-1 0.57422-1.5 1.4688-1.5 2.6875 0 0.90625 0.33594 1.6172 1.0156 2.125 0.67578 0.51172 1.9062 0.94922 3.6875 1.3125l3.7344 0.75c3.7812 0.76172 6.4688 1.918 8.0625 3.4688 1.6016 1.543 2.4062 3.7461 2.4062 6.6094 0 3.75-1.1172 6.543-3.3438 8.375-2.2305 1.8242-5.6328 2.7344-10.203 2.7344-2.1562 0-4.3242-0.20312-6.5-0.60938-2.168-0.40625-4.3398-1.0156-6.5156-1.8281v-7.4062c2.1758 1.1562 4.2734 2.0273 6.2969 2.6094 2.0312 0.58594 3.9883 0.875 5.875 0.875 1.9141 0 3.3789-0.31641 4.3906-0.95312 1.0195-0.63281 1.5312-1.5469 1.5312-2.7344 0-1.0625-0.34375-1.8789-1.0312-2.4531-0.6875-0.58203-2.0703-1.1016-4.1406-1.5625l-3.3906-0.75c-3.4062-0.72656-5.8984-1.8906-7.4688-3.4844-1.5742-1.5938-2.3594-3.7422-2.3594-6.4531 0-3.3828 1.0938-5.9883 3.2812-7.8125 2.1875-1.8203 5.332-2.7344 9.4375-2.7344 1.875 0 3.7969 0.14062 5.7656 0.42188 1.9766 0.28125 4.0234 0.70312 6.1406 1.2656z"/>
  </symbol>
  <symbol id="o" overflow="visible">
   <path d="m27.578-21.281c1.0312-1.582 2.2539-2.7852 3.6719-3.6094 1.4258-0.83203 2.9883-1.25 4.6875-1.25 2.9375 0 5.1719 0.90625 6.7031 2.7188 1.5312 1.8047 2.2969 4.4297 2.2969 7.875v15.547h-8.2031v-13.312c0.019531-0.19531 0.03125-0.39844 0.03125-0.60938 0.007813-0.21875 0.015625-0.51953 0.015625-0.90625 0-1.8125-0.26562-3.125-0.79688-3.9375s-1.3906-1.2188-2.5781-1.2188c-1.5547 0-2.75 0.64062-3.5938 1.9219-0.84375 1.2734-1.2773 3.1172-1.2969 5.5312v12.531h-8.2031v-13.312c0-2.8203-0.24609-4.6406-0.73438-5.4531-0.49219-0.8125-1.3555-1.2188-2.5938-1.2188-1.5742 0-2.7891 0.64062-3.6406 1.9219-0.84375 1.2812-1.2656 3.1172-1.2656 5.5v12.562h-8.2031v-25.531h8.2031v3.75c1-1.4453 2.1484-2.5352 3.4531-3.2656 1.3008-0.72656 2.7344-1.0938 4.2969-1.0938 1.7578 0 3.3164 0.42969 4.6719 1.2812 1.3516 0.84375 2.3789 2.0391 3.0781 3.5781z"/>
  </symbol>
  <symbol id="c" overflow="visible">
   <path d="m23.859-24.719v6.1875c-1.75-0.72656-3.4375-1.2734-5.0625-1.6406-1.625-0.36328-3.1562-0.54688-4.5938-0.54688-1.5547 0-2.7109 0.19922-3.4688 0.59375-0.75 0.38672-1.125 0.98047-1.125 1.7812 0 0.65625 0.28516 1.1641 0.85938 1.5156 0.57031 0.34375 1.5938 0.60156 3.0625 0.76562l1.4375 0.20312c4.1758 0.53125 6.9844 1.4062 8.4219 2.625 1.4453 1.2109 2.1719 3.1172 2.1719 5.7188 0 2.7188-1.0078 4.7617-3.0156 6.125-2 1.3672-4.9922 2.0469-8.9688 2.0469-1.6875 0-3.4336-0.13672-5.2344-0.40625-1.793-0.25781-3.6406-0.65625-5.5469-1.1875v-6.2031c1.625 0.79297 3.2891 1.3867 5 1.7812 1.7188 0.39844 3.457 0.59375 5.2188 0.59375 1.5938 0 2.7891-0.21875 3.5938-0.65625 0.8125-0.4375 1.2188-1.0938 1.2188-1.9688 0-0.72656-0.28125-1.2695-0.84375-1.625-0.55469-0.35156-1.6562-0.62891-3.3125-0.82812l-1.4375-0.1875c-3.625-0.44531-6.168-1.2852-7.625-2.5156-1.4609-1.2383-2.1875-3.1094-2.1875-5.6094 0-2.707 0.92188-4.7109 2.7656-6.0156 1.8516-1.3125 4.6953-1.9688 8.5312-1.9688 1.5 0 3.0781 0.11719 4.7344 0.34375 1.6562 0.23047 3.457 0.58984 5.4062 1.0781z"/>
  </symbol>
  <symbol id="n" overflow="visible">
   <path d="m29.578-15.547v15.547h-8.2031v-11.844c0-2.2383-0.054688-3.7734-0.15625-4.6094-0.09375-0.83203-0.26172-1.4453-0.5-1.8438-0.32422-0.53125-0.76172-0.94141-1.3125-1.2344-0.54297-0.30078-1.1641-0.45312-1.8594-0.45312-1.6992 0-3.0391 0.65625-4.0156 1.9688-0.96875 1.3125-1.4531 3.1328-1.4531 5.4531v12.562h-8.1562v-35.453h8.1562v13.672c1.2266-1.4883 2.5352-2.5859 3.9219-3.2969 1.3828-0.70703 2.9102-1.0625 4.5781-1.0625 2.9453 0 5.1797 0.90625 6.7031 2.7188 1.5312 1.8047 2.2969 4.4297 2.2969 7.875z"/>
  </symbol>
  <symbol id="m" overflow="visible">
   <path d="m3.9219-25.531h8.1562v25.531h-8.1562zm0-9.9219h8.1562v6.6406h-8.1562z"/>
  </symbol>
  <symbol id="l" overflow="visible">
   <path d="m24.547-24.719v6.6406c-1.1172-0.75781-2.2305-1.3203-3.3438-1.6875-1.1172-0.36328-2.2734-0.54688-3.4688-0.54688-2.2812 0-4.0586 0.66797-5.3281 2-1.2734 1.3359-1.9062 3.1953-1.9062 5.5781 0 2.3867 0.63281 4.2461 1.9062 5.5781 1.2695 1.3242 3.0469 1.9844 5.3281 1.9844 1.2695 0 2.4766-0.1875 3.625-0.5625 1.1445-0.38281 2.207-0.94531 3.1875-1.6875v6.6719c-1.2812 0.46875-2.5781 0.81641-3.8906 1.0469-1.3125 0.23828-2.6328 0.35938-3.9531 0.35938-4.6055 0-8.2109-1.1758-10.812-3.5312-2.5938-2.3633-3.8906-5.6484-3.8906-9.8594 0-4.207 1.2969-7.4922 3.8906-9.8594 2.6016-2.3633 6.207-3.5469 10.812-3.5469 1.332 0 2.6484 0.12109 3.9531 0.35938 1.3008 0.23047 2.5977 0.58594 3.8906 1.0625z"/>
  </symbol>
  <symbol id="k" overflow="visible">
   <path d="m16.062-20.312c-1.8047 0-3.1836 0.65234-4.1406 1.9531-0.94922 1.3047-1.4219 3.1797-1.4219 5.625 0 2.4492 0.47266 4.3242 1.4219 5.625 0.95703 1.293 2.3359 1.9375 4.1406 1.9375 1.7812 0 3.1406-0.64453 4.0781-1.9375 0.94531-1.3008 1.4219-3.1758 1.4219-5.625 0-2.4453-0.47656-4.3203-1.4219-5.625-0.9375-1.3008-2.2969-1.9531-4.0781-1.9531zm0-5.8281c4.3945 0 7.8281 1.1875 10.297 3.5625 2.4688 2.3672 3.7031 5.6484 3.7031 9.8438 0 4.1875-1.2344 7.4688-3.7031 9.8438-2.4688 2.3672-5.9023 3.5469-10.297 3.5469-4.4062 0-7.8555-1.1797-10.344-3.5469-2.4805-2.375-3.7188-5.6562-3.7188-9.8438 0-4.1953 1.2383-7.4766 3.7188-9.8438 2.4883-2.375 5.9375-3.5625 10.344-3.5625z"/>
  </symbol>
  <symbol id="j" overflow="visible">
   <path d="m29.578-15.547v15.547h-8.2031v-11.891c0-2.207-0.054688-3.7266-0.15625-4.5625-0.09375-0.83203-0.26172-1.4453-0.5-1.8438-0.32422-0.53125-0.76172-0.94141-1.3125-1.2344-0.54297-0.30078-1.1641-0.45312-1.8594-0.45312-1.6992 0-3.0391 0.65625-4.0156 1.9688-0.96875 1.3125-1.4531 3.1328-1.4531 5.4531v12.562h-8.1562v-25.531h8.1562v3.75c1.2266-1.4883 2.5352-2.5859 3.9219-3.2969 1.3828-0.70703 2.9102-1.0625 4.5781-1.0625 2.9453 0 5.1797 0.90625 6.7031 2.7188 1.5312 1.8047 2.2969 4.4297 2.2969 7.875z"/>
  </symbol>
 </defs>
 <g>
  <path d="m614.32 266.28-31.547-8.3086c-3.8047-1.0117-7.7734-1.2344-11.668-0.65234-4.0078-31.305-14.844-61.352-31.73-88.012l26.973-45.734c6.2539-10.547 3.7344-16.707 0.55859-19.973-3.1719-3.2656-9.332-5.8789-19.973 0l-41.812 23.801v-0.003906c-35.965-34.461-82.488-55.797-132.07-60.57l-13.723-51.242c-3.3594-11.852-9.332-14.371-14.094-14.371-4.5703 0-10.637 2.5195-13.906 14.371l-14.184 52.453c-46.906 6.7461-90.43 28.297-124.23 61.508l-45.176-25.762c-10.641-6.0664-16.707-3.4531-19.973 0-3.2656 3.4531-5.6914 9.332 0.55859 19.973l29.59 49.844c-15.473 25.641-25.332 54.27-28.934 84-3.9023-0.55469-7.8711-0.30078-11.668 0.74609l-31.547 8.3086c-12.039 2.7031-14.465 8.7695-14.465 13.344s2.5195 10.641 14.375 13.812l30.984 8.0273c3.5586 0.96094 7.2305 1.4609 10.918 1.4922h0.65234c2.6992 30.832 11.992 60.719 27.254 87.641l-27.16 45.547c-6.2539 10.641-3.7344 16.707-0.55859 19.973 2.1992 2.2656 5.2422 3.5195 8.3984 3.4531 4.1094-0.19141 8.0977-1.4453 11.574-3.6367l39.293-22.398v-0.003906c35.051 37.32 81.953 61.332 132.72 67.945l11.57 42.562c3.1719 11.852 9.332 14.281 13.906 14.281s10.641-2.5195 13.906-14.281l11.293-41.625 0.003906-0.003906c53.438-4.5391 103.42-28.316 140.65-66.918l35.746 20.348c3.4805 2.1914 7.4648 3.4453 11.574 3.6367 3.1562 0.066407 6.1992-1.1836 8.3984-3.4531 3.1719-3.2656 5.6914-9.332-0.55859-19.973l-24.078-40.973h-0.003906c16.836-28.094 27.023-59.668 29.773-92.305h0.65625c3.6172 0.011718 7.2227-0.42578 10.73-1.3086l30.801-8.1211c11.945-3.0781 14.375-9.332 14.375-13.719s-2.2422-10.641-14.188-13.719zm-153.35-92.121 8.3086-4.7617 72.613-41.348-21.465 36.492-25.105 42.652-0.003907 0.003907c-0.60547 1.6328-2.0703 2.7891-3.7969 3.0039-1.7266 0.21875-3.4297-0.54688-4.418-1.9766l-27.16-26.691c-1.3828-0.88281-2.125-2.4844-1.9062-4.1094 0.22266-1.625 1.3672-2.9727 2.9336-3.4531zm-140-49.746 24.078-88.762 11.387 42 10.453 38.641 2.1484 8.0273c0.73828 1.4922 0.57031 3.2773-0.44141 4.6016-1.0078 1.3281-2.6797 1.9648-4.3164 1.6523h-38.359c-1.6367 0.3125-3.3125-0.32422-4.3203-1.6523-1.0078-1.3242-1.1797-3.1094-0.44141-4.6016zm-87.453 261.33-49.559 28-31.176 18.199 46.668-79.148v0.003906c0.72656-1.5117 2.0977-2.6133 3.7344-2.9883 1.5078 0.125 2.9141 0.82812 3.918 1.9609l27.066 26.691c1.3828 0.88281 2.1289 2.4844 1.9102 4.1094-0.22266 1.625-1.3672 2.9727-2.9336 3.4531zm0.93359-204.12-27.066 26.691v0.003906c-0.98828 1.4297-2.6914 2.1914-4.418 1.9766s-3.1875-1.3711-3.7969-3.0039v-0.74609l-46.48-78.492 37.332 21.094 43.961 25.012h0.003906c1.5664 0.48047 2.7109 1.8281 2.9336 3.4492 0.21875 1.625-0.52734 3.2305-1.9102 4.1094zm134.68 253.87-24.078 88.762-9.332-33.227-15.027-55.441h-0.003906c-0.73828-1.4922-0.56641-3.2773 0.44141-4.6016 1.0117-1.3242 2.6836-1.9648 4.3203-1.6523h38.641c1.6367-0.3125 3.3086 0.32812 4.3203 1.6523 1.0078 1.3242 1.1797 3.1094 0.4375 4.6016zm-23.895-127.49c-7.3828-0.17188-14.402-3.2578-19.523-8.582s-7.9336-12.457-7.8164-19.844c0.11328-7.3867 3.1406-14.43 8.4258-19.594 5.2852-5.1641 12.395-8.0273 19.781-7.9727 7.3867 0.058594 14.453 3.0312 19.66 8.2734 5.2031 5.2422 8.125 12.332 8.1289 19.719 0 7.5391-3.0391 14.762-8.4336 20.035-5.3906 5.2695-12.684 8.1406-20.223 7.9648zm168.93 108.08-53.199-30.238c-1.5664-0.48047-2.7109-1.8281-2.9336-3.4492-0.21875-1.625 0.52344-3.2305 1.9062-4.1094l14.656-14.281 12.602-12.32h-0.003906c1.0078-1.1328 2.4102-1.8359 3.9219-1.9609 1.6328 0.375 3.0078 1.4766 3.7305 2.9883l3.5469 6.0664 43.027 73.172z"/>
 </g>
</svg>
